{"title":"The.Transporter.Refueled.2015.BRRiP.XViD.AC3.5.1.ReLeNTLesS","uid":12797325,"size":1386435634,"categoryP":"video","categoryS":"movies","magnet":"?xt=urn:btih:f797df3de48aac02617a8690ee73d4b82664618f&amp;dn=The.Transporter.Refueled.2015.BRRiP.XViD.AC3.5.1.ReLeNTLesS&amp;tr=udp%3A%2F%2Ftracker.leechers-paradise.org%3A6969&amp;tr=udp%3A%2F%2Fzer0day.ch%3A1337&amp;tr=udp%3A%2F%2Fopen.demonii.com%3A1337&amp;tr=udp%3A%2F%2Ftracker.coppersurfer.tk%3A6969&amp;tr=udp%3A%2F%2Fexodus.desync.com%3A6969","seeders":0,"leechers":0,"uploader":"TvTeam","files":4,"time":1447990355,"description":"------------------------------------------------------------------------\r\n\r  https://www.torrenting.com\r\n\r\nSign up is OPEN - for time being. Come and have fun.\r\n\r\n------------------------------------------------------------------------P0STER\r\n[img]http://i.imgur.com/5aukdxo.png[/img]\r\n\r\niMDB: http://www.imdb.com/title/tt2938956/\r\n\r\nGeneral\r\nComplete name               : The.Transporter.Refueled.2015.BRRiP.XViD.AC3.5.1.ReLeNTLesS.avi\r\nFormat                      : AVI\r\nFormat/Info                 : Audio Video Interleave\r\nFile size                   : 1.27 GiB\r\nDuration                    : 1h 35mn\r\nOverall bit rate            : 1 902 Kbps\r\n\r\nVideo\r\nID                          : 0\r\nFormat                      : MPEG-4 Visual\r\nFormat profile              : Advanced   \r\nFormat settings, BVOP       : 1\r\nFormat settings, QPel       : No\r\nFormat settings, GMC        : No warppoints\r\nFormat settings, Matrix     : Default (H.263)\r\nMuxing mode                 : Packed bitstream\r\nCodec ID                    : XVID\r\nCodec ID/Hint               : XviD\r\nDuration                    : 1h 35mn\r\nBit rate                    : 1 702 Kbps\r\nWidth                       : 720 pixels\r\nHeight                      : 304 pixels\r\nDisplay aspect ratio        : 2.35:1\r\nFrame rate                  : 23.976 fps\r\nColor space                 : YUV\r\nChroma subsampling          : 4:2:0\r\nBit depth                   : 8 bits\r\nScan type                   : Progressive\r\nCompression mode            : Lossy\r\nBits/(Pixel*Frame)          : 0.324\r\nStream size                 : 1.14 GiB (89%)\r\nWriting library             : XviD 1.2.1 (UTC 2008-12-04)\r\n\r\nAudio\r\nID                          : 1\r\nFormat                      : AC-3\r\nFormat/Info                 : Audio Coding 3\r\nMode extension              : CM (complete main)\r\nFormat settings, Endianness : Big\r\nCodec ID                    : 2000\r\nDuration                    : 1h 35mn\r\nBit rate mode               : Constant\r\nBit rate                    : 192 Kbps\r\nChannel(s)                  : 6 channels\r\nChannel positions           : Front: L C R, Side: L R, LFE\r\nSampling rate               : 48.0 KHz\r\nCompression mode            : Lossy\r\nStream size                 : 132 MiB (10%)\r\nAlignment                   : Aligned on interleaves\r\nInterleave, duration        : 64 ms (1.53 video frames)\r\nInterleave, preload duratio : 192 ms\r\nTitle                       : The.Transporter.Refueled.2015.ReLeNTLesS.5.1.Audio.English\r\nSample Included             : Yes\r\nSource                      : GECKOS Thanks\r\n\r\nPL0T\r\nIn the south of France, former special-ops mercenary Frank Martin enters into a game of chess with a femme-fatale and her three sidekicks who are looking for revenge against a sinister Russian kingpin.\r\n\r\nCAST\r\nDirector: Camille Delamarre\r\nWriters: Adam Cooper, Bill Collage\r\nStars: Ed Skrein, Loan Chabanol, Ray Stevenson\r\n\r\nN0TE\r\nResized then degrained and sharpend done audio and muxed, Hardcoded subs for none English parts see sample.\r\n\r\nSCREENS\r\n[img]http://i.imgur.com/tQ25E43.png[/img]\r\n[img]http://i.imgur.com/RrBftj2.png[/img]\r\n[img]http://i.imgur.com/WTR802h.png[/img]\r\n[img]http://i.imgur.com/913g3lE.png[/img]\r\n[img]http://i.imgur.com/WwJQbZ9.png[/img]\r\n[img]http://i.imgur.com/xsYehWD.png[/img]\r\n[img]http://i.imgur.com/tuw4H83.png[/img]\r\n[img]http://i.imgur.com/ZsntUcS.png[/img]\r\n\r\nTRAiLER\r\n\r\n\r\nGREETZ\r\n\r\nHIVE-CM8, Blackjesus, M0RPH, M00SE, MiLLENiUM,\r\n\r\nMANiX, TiTAN, Anonymous, TuX, \r\n\r\nACAB, KingStoner, FooKas, 4PlayHD, \r\n\r\nSoZE, GodFather, Cld.... \r\n\r\nKeep up the good work guyz","torrent":{"xt":"urn:btih:f797df3de48aac02617a8690ee73d4b82664618f","amp;dn":"The.Transporter.Refueled.2015.BRRiP.XViD.AC3.5.1.ReLeNTLesS","amp;tr":["udp%3A%2F%2Ftracker.leechers-paradise.org%3A6969","udp%3A%2F%2Fzer0day.ch%3A1337","udp%3A%2F%2Fopen.demonii.com%3A1337","udp%3A%2F%2Ftracker.coppersurfer.tk%3A6969","udp%3A%2F%2Fexodus.desync.com%3A6969"],"infoHash":"f797df3de48aac02617a8690ee73d4b82664618f","infoHashBuffer":{"type":"Buffer","data":[247,151,223,61,228,138,172,2,97,122,134,144,238,115,212,184,38,100,97,143]},"announce":[],"urlList":[]}}